
<svg xmlns="http://www.w3.org/2000/svg" xml:space="preserve" id="Layer_1" version="1.1" viewBox="810 845 585 380"><style>.st2{fill:#fff}</style><path d="m823.45 1061 72.71-72.71h-75.82l99.39-99.4h24.05l-82.38 82.39h75.82L847.51 1061zM859.66 1061l89.71-89.72h24.05L883.71 1061zM1201.85 965.18v-.09l-7.38 7.46-88.44 88.45h24.05l63.19-63.19V1061h17V956.76zM1003.61 1213.56v-86.5l-86.5 86.5h-17.46v-6.63l121-121v127.63zM1301.39 1061c-1.46 0-2.95-.04-4.43-.11-11.79-.6-23.11-3.54-33.66-8.75-12.77-6.31-23.88-15.8-32.14-27.43a85.86 85.86 0 0 1-15.83-49.09v-.66c0-7.2.89-14.36 2.65-21.27.75-2.98 1.69-5.96 2.78-8.87 7.7-20.59 22.81-37.29 42.54-47.05a85.1 85.1 0 0 1 33.65-8.75c1.48-.07 2.97-.11 4.43-.11s2.95.04 4.43.11c11.79.6 23.11 3.54 33.66 8.75 19.73 9.75 34.84 26.46 42.54 47.04 1.09 2.91 2.02 5.89 2.78 8.87l1.35 5.35h-17.48l-.89-3.11c-.76-2.67-1.7-5.33-2.8-7.92-4.97-11.72-13.1-21.84-23.5-29.27a68.75 68.75 0 0 0-36.12-12.71l-1.98-.11h-3.97l-1.98.11a68.75 68.75 0 0 0-36.12 12.71 69.3 69.3 0 0 0-23.5 29.26 67 67 0 0 0-2.8 7.92 69.4 69.4 0 0 0-2.66 19.04v.56c.02 2.67.2 5.34.52 7.96 1.96 15.92 9.51 30.76 21.26 41.8a69.08 69.08 0 0 0 43.3 18.61l1.99.11h3.96l1.99-.11c16.13-.91 31.51-7.52 43.3-18.61 10.55-9.92 17.72-22.91 20.49-36.99h-67.84v-17.01h86.16l-.03 4.32c-.02 2.97-.2 5.95-.52 8.86-1.59 14.45-6.89 28.36-15.31 40.23-8.26 11.64-19.37 21.13-32.14 27.43a85.1 85.1 0 0 1-33.65 8.75c-1.48.1-2.97.14-4.43.14M827.45 1213.56V1094.5h17.04v102.03h48.56v17.03zM1130.36 1123.85v.87l-1.36-.87z" class="st2"/><path d="m1170.67 1213.56-37.7-37.43v37.43h-17.04v-54.36l-10.08-10.01 10.08-3.52v-49.64l.07-.07.54-8.33 73.07 46.92-56.64 19.79v2.34l57.29 56.88zm-37.7-73.84 25.36-8.86-25.36-16.28z" class="st2"/><path d="M1029.34 1213.56V1094.5h17.04v102.03h43.34V1094.5h17.04v119.06zM1061.31 1061c-1.45 0-2.95-.04-4.43-.11-11.79-.6-23.11-3.54-33.65-8.75-12.76-6.31-23.88-15.8-32.14-27.43a85.86 85.86 0 0 1-15.83-49.09v-.66c0-7.2.89-14.36 2.65-21.27.75-2.97 1.69-5.95 2.77-8.87 7.7-20.58 22.81-37.29 42.55-47.05 10.53-5.21 21.85-8.15 33.65-8.75 1.48-.07 2.97-.11 4.43-.11s2.95.04 4.43.11c11.79.6 23.11 3.54 33.66 8.75 19.74 9.76 34.84 26.46 42.54 47.05 1.09 2.91 2.02 5.89 2.78 8.87l1.36 5.35h-17.49l-.89-3.11c-.77-2.69-1.71-5.35-2.8-7.92a69.24 69.24 0 0 0-23.5-29.27 68.75 68.75 0 0 0-36.12-12.71l-1.98-.11h-3.97l-1.98.11a68.75 68.75 0 0 0-36.12 12.71 69.3 69.3 0 0 0-23.5 29.26c-1.1 2.59-2.04 5.26-2.8 7.93a69.3 69.3 0 0 0-2.66 19.04v.56c.02 2.68.2 5.35.52 7.97 1.96 15.92 9.51 30.76 21.25 41.8a69.08 69.08 0 0 0 43.3 18.61l1.99.11h3.97l1.99-.11c16.13-.91 31.51-7.52 43.3-18.61 10.55-9.92 17.72-22.91 20.49-36.99h-67.84V971.3h86.16l-.03 4.32c-.02 2.97-.2 5.95-.52 8.86-1.59 14.45-6.89 28.36-15.31 40.23-8.26 11.64-19.37 21.13-32.14 27.43a85.1 85.1 0 0 1-33.65 8.75c-1.5.07-2.99.11-4.44.11M1255.96 1210.97l-60.28-42.99 46.37-17.88-48.17-15.55 60.88-37.46h26.13l-56.4 33.78 56.23 18.15-58.03 22.37 55.5 39.58zM1356.33 1182.86l3.9-104.58 14.97.56-5.98 160.2-56.53-106.37-2.93-5.13v84.47h-14.98v-142.68z" class="st2"/><circle cx="1060.12" cy="867.6" r="11.5" class="st2"/></svg>
